<svg xmlns="http://www.w3.org/2000/svg" xmlns:xlink="http://www.w3.org/1999/xlink" width="80.505" height="81.475" viewBox="0 0 80.505 81.475">
  <defs>
    <clipPath id="clip-path">
      <path id="path4668" d="M0-682.665H78.655v78.655H0Z" transform="translate(0 682.665)"/>
    </clipPath>
  </defs>
  <g id="Grupo_1190819" data-name="Grupo 1190819" transform="translate(0.26 -0.006)">
    <g id="Grupo_1188569" data-name="Grupo 1188569" transform="translate(0 0)">
      <g id="Grupo_1099776" data-name="Grupo 1099776" transform="translate(0)">
        <g id="Grupo_1191484" data-name="Grupo 1191484">
          <g id="Grupo_1099618" data-name="Grupo 1099618" transform="translate(-0.26 0.006)">
            <rect id="Rectángulo_401104" data-name="Rectángulo 401104" width="80.505" height="81.475" fill="none"/>
          </g>
          <g id="g4662" transform="translate(0.74 683.672)">
            <g id="g4664" transform="translate(0 -682.665)">
              <g id="g4666" clip-path="url(#clip-path)">
                <g id="g4672" transform="translate(0.001 18.921)">
                  <path id="path4674" d="M-327.733-7.7h-35.512A1.152,1.152,0,0,1-364.4-8.848,1.152,1.152,0,0,1-363.244-10h35.512a1.152,1.152,0,0,1,1.152,1.152A1.152,1.152,0,0,1-327.733-7.7Z" transform="translate(364.396 10)"/>
                </g>
                <g id="g4676" transform="translate(64.262 6.467)">
                  <path id="path4678" d="M-31.854-53.677A4.153,4.153,0,0,1-36-57.825a4.151,4.151,0,0,1,4.148-4.144,4.149,4.149,0,0,1,4.144,4.144A4.151,4.151,0,0,1-31.854-53.677Zm0-5.988A1.844,1.844,0,0,0-33.7-57.825a1.846,1.846,0,0,0,1.844,1.844,1.844,1.844,0,0,0,1.839-1.844A1.842,1.842,0,0,0-31.854-59.665Z" transform="translate(36.003 61.969)"/>
                </g>
                <g id="g4680" transform="translate(52.578 6.467)">
                  <path id="path4682" d="M-31.854-53.677A4.153,4.153,0,0,1-36-57.825a4.151,4.151,0,0,1,4.148-4.144,4.149,4.149,0,0,1,4.144,4.144A4.151,4.151,0,0,1-31.854-53.677Zm0-5.988A1.844,1.844,0,0,0-33.7-57.825a1.846,1.846,0,0,0,1.844,1.844,1.844,1.844,0,0,0,1.839-1.844A1.842,1.842,0,0,0-31.854-59.665Z" transform="translate(36.003 61.969)"/>
                </g>
                <g id="g4684" transform="translate(40.895 6.467)">
                  <path id="path4686" d="M-31.854-53.677A4.153,4.153,0,0,1-36-57.825a4.151,4.151,0,0,1,4.148-4.144,4.149,4.149,0,0,1,4.144,4.144A4.151,4.151,0,0,1-31.854-53.677Zm0-5.988A1.844,1.844,0,0,0-33.7-57.825a1.846,1.846,0,0,0,1.844,1.844,1.844,1.844,0,0,0,1.839-1.844A1.842,1.842,0,0,0-31.854-59.665Z" transform="translate(36.003 61.969)"/>
                </g>
                <g id="g4688" transform="translate(6.097 6.467)">
                  <path id="path4690" d="M-31.854-10h19.961A4.151,4.151,0,0,1-7.745-5.856a4.153,4.153,0,0,1-4.148,4.148H-31.854A4.153,4.153,0,0,1-36-5.856,4.151,4.151,0,0,1-31.854-10Zm19.961,5.988a1.846,1.846,0,0,0,1.844-1.844A1.844,1.844,0,0,0-11.893-7.7H-31.854A1.844,1.844,0,0,0-33.7-5.856a1.846,1.846,0,0,0,1.844,1.844Z" transform="translate(36.003 10)"/>
                </g>
                <g id="g4692" transform="translate(19.906 26.62)">
                  <path id="path4694" d="M-269.182-155.48h-32.25a1.932,1.932,0,0,1-1.927-1.932V-199.77a1.929,1.929,0,0,1,1.927-1.927h32.25a1.929,1.929,0,0,1,1.927,1.927v10.377a1.152,1.152,0,0,1-1.152,1.152,1.152,1.152,0,0,1-1.152-1.152v-10h-31.5v41.608h31.5v-20.674a1.152,1.152,0,0,1,1.152-1.152,1.152,1.152,0,0,1,1.152,1.152v21.046A1.932,1.932,0,0,1-269.182-155.48Z" transform="translate(303.359 201.697)"/>
                </g>
                <g id="g4696" transform="translate(0.001 0)">
                  <path id="path4698" d="M-401.729-496.229h-19.53a1.152,1.152,0,0,1-1.152-1.152,1.152,1.152,0,0,1,1.152-1.152h19.53a1.961,1.961,0,0,0,1.961-1.957v-57.4a1.961,1.961,0,0,0-1.961-1.957h-70.126a1.959,1.959,0,0,0-1.957,1.957v57.4a1.959,1.959,0,0,0,1.957,1.957h10.978a1.152,1.152,0,0,1,1.152,1.152,1.152,1.152,0,0,1-1.152,1.152h-10.978a4.266,4.266,0,0,1-4.261-4.261v-57.4a4.266,4.266,0,0,1,4.261-4.261h70.126a4.268,4.268,0,0,1,4.266,4.261v57.4A4.268,4.268,0,0,1-401.729-496.229Z" transform="translate(476.116 562.151)"/>
                </g>
                <g id="g4700" transform="translate(26.068 64.371)">
                  <path id="path4702" d="M-152.206-7.7h-13.072a1.152,1.152,0,0,1-1.152-1.152A1.152,1.152,0,0,1-165.278-10h13.072a1.152,1.152,0,0,1,1.152,1.152A1.152,1.152,0,0,1-152.206-7.7Z" transform="translate(166.43 10)"/>
                </g>
                <g id="g4704" transform="translate(26.068 57.883)">
                  <path id="path4706" d="M3.537-7.7H-8.848A1.152,1.152,0,0,1-10-8.848,1.152,1.152,0,0,1-8.848-10H3.537A1.152,1.152,0,0,1,4.689-8.848,1.152,1.152,0,0,1,3.537-7.7Z" transform="translate(10 10)"/>
                </g>
                <g id="g4708" transform="translate(26.068 51.398)">
                  <path id="path4710" d="M3.537-7.7H-8.848A1.152,1.152,0,0,1-10-8.848,1.152,1.152,0,0,1-8.848-10H3.537A1.152,1.152,0,0,1,4.689-8.848,1.152,1.152,0,0,1,3.537-7.7Z" transform="translate(10 10)"/>
                </g>
                <g id="g4712" transform="translate(26.067 44.91)">
                  <path id="path4714" d="M-70.259-7.7h-2.5A1.152,1.152,0,0,1-73.91-8.848,1.152,1.152,0,0,1-72.758-10h2.5a1.152,1.152,0,0,1,1.152,1.152A1.152,1.152,0,0,1-70.259-7.7Z" transform="translate(73.91 10)"/>
                </g>
                <g id="g4716" transform="translate(14.088 32.438)">
                  <path id="path4718" d="M24.064-85.181H-7.959A2.045,2.045,0,0,1-10-87.226v-23.711a1.152,1.152,0,0,1,1.152-1.152A1.152,1.152,0,0,1-7.7-110.937v23.452H23.8v-4.666A1.152,1.152,0,0,1,24.953-93.3,1.152,1.152,0,0,1,26.1-92.151v4.925A2.045,2.045,0,0,1,24.064-85.181ZM-8.848-128.206a1.152,1.152,0,0,1-.751-.278,1.152,1.152,0,0,1-.4-.874A2.043,2.043,0,0,1-7.959-131.4H-3.03a1.152,1.152,0,0,1,1.149,1.065,1.152,1.152,0,0,1-.975,1.226l-5.818.888A1.154,1.154,0,0,1-8.848-128.206Z" transform="translate(10 131.398)"/>
                </g>
                <g id="g4720" transform="translate(60.308 30.496)">
                  <path id="path4722" d="M-3.4-2.77a1.148,1.148,0,0,1-.773-.3L-9.621-7.994A1.152,1.152,0,0,1-9.7-9.621,1.152,1.152,0,0,1-8.075-9.7l5.443,4.925A1.152,1.152,0,0,1-2.55-3.15,1.149,1.149,0,0,1-3.4-2.77Z" transform="translate(10 10)"/>
                </g>
                <g id="g4724" transform="translate(46.882 45.441)">
                  <path id="path4726" d="M-3.545-2.892a1.148,1.148,0,0,1-.773-.3l-5.3-4.8A1.152,1.152,0,0,1-9.7-9.621,1.152,1.152,0,0,1-8.074-9.7l5.3,4.8A1.152,1.152,0,0,1-2.69-3.271,1.149,1.149,0,0,1-3.545-2.892Z" transform="translate(10 10)"/>
                </g>
                <g id="g4728" transform="translate(43.084 26.62)">
                  <path id="path4730" d="M-9.133-224.824a1.333,1.333,0,0,1-.9-.336,1.621,1.621,0,0,1-.216-1.963l3.21-7.813A6.315,6.315,0,0,1-5.8-237.012l15.73-17.346a3.343,3.343,0,0,1,2.467-1.089,3.32,3.32,0,0,1,2.235.861l2.216,2.007a3.3,3.3,0,0,1,1.085,2.3,3.308,3.308,0,0,1-.857,2.4L1.346-230.532a6.276,6.276,0,0,1-1.917,1.417l-7.489,3.97A2.289,2.289,0,0,1-9.133-224.824ZM12.4-253.143a1.018,1.018,0,0,0-.762.334L-4.093-235.466a4,4,0,0,0-.8,1.384l-2.442,5.945,5.657-3a4.089,4.089,0,0,0,1.32-.946l15.727-17.343a1.019,1.019,0,0,0,.262-.74,1.013,1.013,0,0,0-.331-.707l-2.216-2.007A1.02,1.02,0,0,0,12.4-253.143Z" transform="translate(10.463 255.447)"/>
                </g>
                <g id="g4732" transform="translate(26.068 32.782)">
                  <path id="path4734" d="M-14.733-10H2.123A1.923,1.923,0,0,1,4.046-8.081v4.5A1.925,1.925,0,0,1,2.123-1.66H-14.733a1.923,1.923,0,0,1-1.919-1.923v-4.5A1.921,1.921,0,0,1-14.733-10ZM1.742-7.7H-14.348v3.731H1.742Z" transform="translate(16.652 10)"/>
                </g>
              </g>
            </g>
          </g>
        </g>
      </g>
    </g>
  </g>
</svg>
