<svg xmlns="http://www.w3.org/2000/svg" width="98" height="98" viewBox="0 0 98 98">
  <g id="Grupo_1189214" data-name="Grupo 1189214" transform="translate(-1089.676 -8398.889)">
    <rect id="Rectángulo_460221" data-name="Rectángulo 460221" width="98" height="98" transform="translate(1089.676 8398.889)" fill="#5b543e"/>
    <g id="Grupo_1189187" data-name="Grupo 1189187" transform="translate(1092.202 8401.341)">
      <path id="Trazado_1034768" data-name="Trazado 1034768" d="M41.826,0V2.9h3.6V4.1H40.709L40.7,0H34.985V2.9h3.6V4.1H33.868L33.853,0H32.766V0H28.142V2.9h3.6V4.1H27.026L27.011,0H25.923V.731h.341l.013,4.1h6.215V2.17h-3.6V.731h4.216l.013,4.1h6.215V2.17h-3.6V.731h4.215l.013,4.1h6.216V2.17h-3.6V.731h3.878l0-.731Z" transform="translate(-6.595 0)" fill="#ada899"/>
      <path id="Trazado_1034769" data-name="Trazado 1034769" d="M96.726,0V2.9h3.6V4.1h-4.72L95.595,0H89.884V2.9h3.6V4.1H88.767L88.751,0h-5.71V2.9h3.6V4.1H81.925L81.91,0H76.2V2.9h3.6V4.1H75.082L75.068,0H73.981V0H69.358V2.9h3.6V4.1H68.241L68.226,0h-5.71V2.9h3.6V4.1H61.4L61.385,0h-5.71V2.9h3.6V4.1H54.557L54.543,0H53.458V.731H53.8l.012,4.1h6.216V2.17h-3.6V.731h4.212l.013,4.1h6.215V2.17h-3.6V.731h4.214l.013,4.1h6.215V2.17h-3.6V.731h4.216l.013,4.1H80.55V2.17h-3.6V.731h4.215l.013,4.1h6.216V2.17h-3.6V.731H88l.013,4.1h6.219V2.17h-3.6V.731h4.209l.013,4.1h6.216V2.17h-3.6V.731h3.877v0h4.522v4.6h-1.226V1.817h-2.976V6.322h.75V2.548H103.9v3.51h2.725V0Z" transform="translate(-13.6 0)" fill="#ada899"/>
      <path id="Trazado_1034770" data-name="Trazado 1034770" d="M88.068,8.7V9.764l4.2.013v4.594H91.044v-3.5H88.068v4.5h0v1.06l4.2.013v4.6H91.044v-3.5H88.068V23.1l4.2.013v4.594H91.044V24.2H88.068V29.77l4.2.013v4.6H91.044v-3.5H88.068v4.5h0v1.06l4.2.013v4.6H91.044v-3.5H88.068v5.566l4.2.013v4.594H91.044v-3.5H88.068v5.566l4.2.013v4.6H91.044V50.88H88.068v5.566l4.2.013v4.6H91.044v-3.5H88.068v4.5h0v1.06l4.2.014v4.594H91.044v-3.5H88.068v5.566l4.2.013v4.6H91.044v-3.5H88.068v5.566l4.2.013V81.06H91.044v-3.5H88.068v4.5h0v1.06l4.2.013v4.6H91.044v-3.5H88.068V89.79l4.2.013v4.6H91.044v-3.5H88.068v3.775h-1.14l-.013-4.1H80.7v2.658h3.6v1.44H80.085l-.013-4.1H73.857v2.658h3.6v1.44H73.243l-.012-4.1H67.015v2.658h3.6v1.44H66.4l-.013-4.1H60.174v2.658h3.6v1.44H59.559l-.012-4.1H53.331v2.658h3.6v1.44H52.718l-.013-4.1H46.49v2.658h3.6v1.44H45.876l-.013-4.1H39.648v2.658h3.6v1.44H39.033l-.012-4.1H32.805v2.658h3.6v1.44H32.192l-.013-4.1H25.964v2.658h3.6v1.44H25.35l-.013-4.1H19.122v2.658h3.6v1.44H18.508l-.013-4.1H12.28v2.658h3.6v1.44H11.666l-.013-4.1H5.438v2.658h3.6v1.44H4.953V90.894H1.977v3.5H.75V89.8l4.2-.013V84.224H1.977v3.5H.75v-4.6l4.2-.013v-1.06h0v-4.5H1.977v3.5H.75V76.466l4.2-.013V70.887H1.977v3.5H.75V69.8l4.2-.013V64.217H1.977v3.5H.75V63.128l4.2-.014V57.549H1.977v3.5H.75V56.459l4.2-.014V55.386h0V50.88H1.977v3.506H.75v-4.6l4.2-.013V44.21H1.977v3.5H.75V43.121l4.2-.013V37.542H1.977v3.5H.75v-4.6l4.2-.013v-1.06h0v-4.5H1.977v3.5H.75v-4.6l4.2-.013V24.2H1.977v3.5H.75V23.114l4.2-.013V17.535H1.977v3.5H.75v-4.6l4.2-.013v-1.06h0v-4.5H1.977v3.5H.75V9.777l4.2-.013V8.7H4.2v.332L0,9.047v6.058H2.726V11.6H4.2V15.7L0,15.716v6.057H2.726V18.264H4.2v4.108L0,22.385v6.059H2.726v-3.51H4.2v4.108L0,29.054v6.058H2.726V31.6H4.2v4.107L0,35.723v6.058H2.726v-3.51H4.2v4.108L0,42.391v6.058H2.726V44.941H4.2v4.107L0,49.061v6.057H2.726V51.609H4.2v4.108L0,55.73v6.058H2.726v-3.51H4.2v4.108L0,62.4v6.058H2.726V64.947H4.2v4.108L0,69.068v6.057H2.726V71.616H4.2v4.109L0,75.736V81.8H2.726v-3.51H4.2v4.107L0,82.4v6.058H2.726V84.954H4.2v4.108L0,89.075v6.057H2.726V91.623H4.2V95.4l.75,0H9.786V92.5H6.191V91.3h4.715l.013,4.1h5.71V92.5h-3.6V91.3h4.714l.013,4.1h5.71V92.5h-3.6V91.3H24.59l.013,4.1h5.71V92.5h-3.6V91.3h4.714l.013,4.1h5.711V92.5h-3.6V91.3h4.714l.013,4.1H44V92.5H40.4V91.3h4.714l.013,4.1h5.71V92.5h-3.6V91.3h4.714l.013,4.1h5.71V92.5h-3.6V91.3H58.8l.013,4.1h5.71V92.5h-3.6V91.3h4.714l.013,4.1h5.71V92.5h-3.6V91.3h4.714l.013,4.1h5.71V92.5h-3.6V91.3h4.714l.013,4.1h5.71V92.5h-3.6V91.3h4.718l.013,4.1h1.888l.749,0V91.623h1.478v3.509H93.02V89.075l-4.2-.012V84.954h1.478v3.509H93.02V82.4l-4.2-.012V78.285h1.478V81.8H93.02V75.736l-4.2-.012V71.616h1.478v3.509H93.02V69.068l-4.2-.012V64.947h1.478v3.509H93.02V62.4l-4.2-.012V58.278h1.478v3.51H93.02V55.73l-4.2-.012V51.609h1.478v3.509H93.02V49.061l-4.2-.013V44.941h1.478v3.509H93.02V42.391l-4.2-.012V38.271h1.478v3.51H93.02V35.723l-4.2-.012V31.6h1.478v3.509H93.02V29.054l-4.2-.012V24.933h1.478v3.51H93.02V22.385l-4.2-.012V18.264h1.478v3.509H93.02V15.716l-4.2-.012V11.6h1.478v3.509H93.02V9.047l-4.2-.012V8.7Z" transform="translate(0 -2.378)" fill="#ada899"/>
      <path id="Trazado_1034771" data-name="Trazado 1034771" d="M14.705,0V2.9h3.6V4.1H13.587L13.575,0H12.487V0H7.864V2.9h3.6V4.1H6.746L6.732,0H0V6.058H2.726V2.548H4.2V6.322h.749V1.817H1.977V5.327H.751V.727H5.644v0h.341L6,4.827h6.214V2.17h-3.6V.731h4.216l.012,4.1h6.216V2.17h-3.6V.731h3.876V0Z" transform="translate(0 0)" fill="#ada899"/>
    </g>
    <g id="Grupo_1189188" data-name="Grupo 1189188" transform="translate(1108.116 8416.464)">
      <g id="Grupo_1188569" data-name="Grupo 1188569" transform="translate(0 0)">
        <g id="Grupo_1099776" data-name="Grupo 1099776" transform="translate(0)">
          <g id="Grupo_1099618" data-name="Grupo 1099618">
            <rect id="Rectángulo_401104" data-name="Rectángulo 401104" width="61.625" height="62.367" fill="none"/>
          </g>
          <g id="Copyright" transform="translate(-1.381 -1.453)">
            <path id="Trazado_1040263" data-name="Trazado 1040263" d="M58.669,11.942H52.7V4.983A2.983,2.983,0,0,0,49.721,2H19.9a2.983,2.983,0,0,0-2.983,2.983V15.919H4.983A2.983,2.983,0,0,0,2,18.9V58.669a2.983,2.983,0,0,0,2.983,2.983H34.808a2.983,2.983,0,0,0,2.983-2.983v-.994H58.669a2.983,2.983,0,0,0,2.983-2.983V14.924a2.983,2.983,0,0,0-2.983-2.983ZM51.709,13.93H53.7v2.748l-.1-.21a1.036,1.036,0,0,0-1.78,0l-.1.21ZM42.762,3.988H44.75v1.69l-.167-.251a1.033,1.033,0,0,0-1.654,0l-.167.251ZM18.9,4.983a.994.994,0,0,1,.994-.994H40.773V8.959a.994.994,0,0,0,1.821.552l1.161-1.745,1.161,1.742a.994.994,0,0,0,1.821-.549V3.988h2.983a.994.994,0,0,1,.994.994v6.959H28.843a2.983,2.983,0,0,0-2.983,2.983v.994H18.9Zm8.948,12.924h1.988v2.748l-.1-.21a1.036,1.036,0,0,0-1.78,0l-.1.21Zm6.959,41.756H4.983a.994.994,0,0,1-.994-.994V18.9a.994.994,0,0,1,.994-.994H25.861v6.959a.994.994,0,0,0,1.884.444l1.1-2.2,1.1,2.2a.994.994,0,0,0,1.884-.444V17.907h2.983a.994.994,0,0,1,.994.994v9.743l-1.585-.7a.994.994,0,0,0-.807,0l-8.948,3.977a.994.994,0,0,0-.591.9v5.9A12.93,12.93,0,0,0,30.52,50.019l2.812,1.562a.994.994,0,0,0,.964,0l1.506-.833v7.921a.994.994,0,0,1-.994.994Zm1.335-11.378-2.329,1.293-2.328-1.292a10.943,10.943,0,0,1-5.625-9.561V33.466l7.954-3.535,7.954,3.535v5.258A10.943,10.943,0,0,1,36.143,48.284Zm23.52,6.408a.994.994,0,0,1-.994.994H37.791V49.613a12.929,12.929,0,0,0,5.965-10.888v-5.9a.994.994,0,0,0-.591-.909l-5.374-2.388V18.9a2.983,2.983,0,0,0-2.983-2.983H27.849v-.994a.994.994,0,0,1,.994-.994H49.721V20.89a.994.994,0,0,0,1.889.444l1.094-2.2,1.094,2.2a.994.994,0,0,0,1.889-.444V13.93h2.983a.994.994,0,0,1,.994.994Z" transform="translate(0)" fill="#fff"/>
            <path id="Trazado_1040264" data-name="Trazado 1040264" d="M40,24H55.907v1.988H40Z" transform="translate(-0.221 -0.128)" fill="#fff"/>
            <path id="Trazado_1040265" data-name="Trazado 1040265" d="M42,28H55.919v1.988H42Z" transform="translate(-0.232 -0.151)" fill="#fff"/>
            <path id="Trazado_1040266" data-name="Trazado 1040266" d="M52,32h3.977v1.988H52Z" transform="translate(-0.291 -0.174)" fill="#fff"/>
            <path id="Trazado_1040267" data-name="Trazado 1040267" d="M46,32h3.977v1.988H46Z" transform="translate(-0.256 -0.174)" fill="#fff"/>
            <path id="Trazado_1040268" data-name="Trazado 1040268" d="M46,36h9.942v1.988H46Z" transform="translate(-0.256 -0.198)" fill="#fff"/>
            <path id="Trazado_1040269" data-name="Trazado 1040269" d="M46,40h3.977v1.988H46Z" transform="translate(-0.256 -0.221)" fill="#fff"/>
            <path id="Trazado_1040270" data-name="Trazado 1040270" d="M52,40h3.977v1.988H52Z" transform="translate(-0.291 -0.221)" fill="#fff"/>
            <path id="Trazado_1040271" data-name="Trazado 1040271" d="M46,44h9.942v1.988H46Z" transform="translate(-0.256 -0.244)" fill="#fff"/>
            <path id="Trazado_1040272" data-name="Trazado 1040272" d="M44,48h3.977v1.988H44Z" transform="translate(-0.244 -0.267)" fill="#fff"/>
            <path id="Trazado_1040273" data-name="Trazado 1040273" d="M50,48h1.988v1.988H50Z" transform="translate(-0.279 -0.267)" fill="#fff"/>
            <path id="Trazado_1040274" data-name="Trazado 1040274" d="M54,48h1.988v1.988H54Z" transform="translate(-0.302 -0.267)" fill="#fff"/>
            <path id="Trazado_1040275" data-name="Trazado 1040275" d="M8,30h5.965v1.988H8Z" transform="translate(-0.035 -0.163)" fill="#fff"/>
            <path id="Trazado_1040276" data-name="Trazado 1040276" d="M16,30h5.965v1.988H16Z" transform="translate(-0.081 -0.163)" fill="#fff"/>
            <path id="Trazado_1040277" data-name="Trazado 1040277" d="M8,46h5.965v1.988H8Z" transform="translate(-0.035 -0.256)" fill="#fff"/>
            <path id="Trazado_1040278" data-name="Trazado 1040278" d="M16,46h7.954v1.988H16Z" transform="translate(-0.081 -0.256)" fill="#fff"/>
            <path id="Trazado_1040279" data-name="Trazado 1040279" d="M8,50h7.954v1.988H8Z" transform="translate(-0.035 -0.279)" fill="#fff"/>
            <path id="Trazado_1040280" data-name="Trazado 1040280" d="M18,50h9.942v1.988H18Z" transform="translate(-0.093 -0.279)" fill="#fff"/>
            <path id="Trazado_1040281" data-name="Trazado 1040281" d="M8,34H9.988v1.988H8Z" transform="translate(-0.035 -0.186)" fill="#fff"/>
            <path id="Trazado_1040282" data-name="Trazado 1040282" d="M12,34h9.942v1.988H12Z" transform="translate(-0.058 -0.186)" fill="#fff"/>
            <path id="Trazado_1040283" data-name="Trazado 1040283" d="M8,38H21.919v1.988H8Z" transform="translate(-0.035 -0.209)" fill="#fff"/>
            <path id="Trazado_1040284" data-name="Trazado 1040284" d="M8,42H21.919v1.988H8Z" transform="translate(-0.035 -0.232)" fill="#fff"/>
            <path id="Trazado_1040285" data-name="Trazado 1040285" d="M23,7h7.954V8.988H23Z" transform="translate(-0.122 -0.029)" fill="#fff"/>
            <path id="Trazado_1040286" data-name="Trazado 1040286" d="M33,7h3.977V8.988H33Z" transform="translate(-0.18 -0.029)" fill="#fff"/>
            <path id="Trazado_1040287" data-name="Trazado 1040287" d="M8,22h3.977v1.988H8Z" transform="translate(-0.035 -0.116)" fill="#fff"/>
            <path id="Trazado_1040288" data-name="Trazado 1040288" d="M14,22h7.954v1.988H14Z" transform="translate(-0.07 -0.116)" fill="#fff"/>
            <path id="Trazado_1040289" data-name="Trazado 1040289" d="M8,26H21.919v1.988H8Z" transform="translate(-0.035 -0.139)" fill="#fff"/>
            <path id="Trazado_1040290" data-name="Trazado 1040290" d="M33.971,36.988A2.982,2.982,0,0,1,36.208,38L37.7,36.683a4.971,4.971,0,1,0,0,6.576l-1.491-1.315a2.983,2.983,0,1,1-2.237-4.955Z" transform="translate(-0.157 -0.192)" fill="#fff"/>
          </g>
        </g>
      </g>
    </g>
  </g>
</svg>
