<svg xmlns="http://www.w3.org/2000/svg" xmlns:xlink="http://www.w3.org/1999/xlink" width="94.023" height="160.824" viewBox="0 0 94.023 160.824">
  <defs>
    <clipPath id="clip-path">
      <path id="Trazado_1033582" data-name="Trazado 1033582" d="M0,0V110.7l91.1,50.122L94.024,43.66Z" transform="translate(0 0.001)" fill="none"/>
    </clipPath>
  </defs>
  <g id="Grupo_1188914" data-name="Grupo 1188914" transform="translate(0 0.001)">
    <path id="Trazado_1033574" data-name="Trazado 1033574" d="M0,107.433l91.1,50.122L93.846,47.5,0,3.441Z" transform="translate(0 3.268)" fill="#678574"/>
    <path id="Trazado_1033575" data-name="Trazado 1033575" d="M2.6,7.785l83.076,39.4L83.4,144.293,2.479,100.138Z" transform="translate(2.354 7.394)" fill="#fff3d4"/>
    <path id="Trazado_1033576" data-name="Trazado 1033576" d="M5.929,13.536,75.247,46.85l-1.722,80.031L5.7,90.278Z" transform="translate(5.412 12.855)" fill="#ff9d6e"/>
    <g id="Grupo_1188739" data-name="Grupo 1188739" transform="translate(0 -0.001)">
      <g id="Grupo_1188738" data-name="Grupo 1188738" clip-path="url(#clip-path)">
        <path id="Trazado_1033577" data-name="Trazado 1033577" d="M8.427,45.749c-.08,18.28,12.218,39.59,27.8,47.936l.811-67.7c-15.87-7.691-28.525,1.3-28.607,19.764" transform="translate(8.002 22.063)" fill="#fff3d4"/>
        <path id="Trazado_1033578" data-name="Trazado 1033578" d="M8.437,84.445l-.174-.094.29-66.935.177.084C24.4,25.092,37.19,46.85,36.962,65.757c-.224,18.719-13.143,26.93-28.525,18.687M8.9,18.015,8.612,84.123c15.192,8,27.849-.289,27.946-18.836C36.656,46.766,24.2,25.575,8.9,18.015" transform="translate(7.847 16.541)" fill="#40213b"/>
        <path id="Trazado_1033579" data-name="Trazado 1033579" d="M22.891,53.218c-.222,18.6,12.5,40.453,28.761,49.166L53.027,33.47c-16.58-8.036-29.911.961-30.136,19.748" transform="translate(21.736 28.988)" fill="#fff3d4"/>
        <path id="Trazado_1033580" data-name="Trazado 1033580" d="M22.769,92.7l-.179-.1L23.4,24.487l.183.088c16.361,7.927,29.607,30.251,29.221,49.5C52.425,93.128,38.821,101.3,22.769,92.7m.994-67.6-.809,67.276c15.856,8.346,29.186.094,29.432-18.787.246-18.857-12.651-40.6-28.623-48.49" transform="translate(21.452 23.256)" fill="#40213b"/>
        <path id="Trazado_1033581" data-name="Trazado 1033581" d="M31.229,20.626,26,11.449l-5.352,4.2-.263-.427L26,10.8l5.5,9.647Z" transform="translate(19.355 10.261)" fill="#40213b"/>
      </g>
    </g>
  </g>
</svg>
